<svg width="1440" height="1136" viewBox="0 0 1440 1136" fill="none" xmlns="http://www.w3.org/2000/svg">
<g clip-path="url(#clip0_108_95)">
<rect width="1440" height="1115" rx="20" fill="url(#paint0_linear_108_95)"/>
<path d="M823.966 678.05C823.966 677.058 824.302 676.226 824.974 675.554C825.646 674.882 826.478 674.546 827.47 674.546C828.462 674.546 829.294 674.882 829.966 675.554C830.638 676.226 830.974 677.058 830.974 678.05C830.974 679.01 830.638 679.826 829.966 680.498C829.294 681.17 828.462 681.506 827.47 681.506C826.478 681.506 825.646 681.17 824.974 680.498C824.302 679.826 823.966 679.01 823.966 678.05Z" fill="white"/>
<path d="M754.362 678.05C754.362 677.058 754.698 676.226 755.37 675.554C756.042 674.882 756.874 674.546 757.866 674.546C758.858 674.546 759.69 674.882 760.362 675.554C761.034 676.226 761.37 677.058 761.37 678.05C761.37 679.01 761.034 679.826 760.362 680.498C759.69 681.17 758.858 681.506 757.866 681.506C756.874 681.506 756.042 681.17 755.37 680.498C754.698 679.826 754.362 679.01 754.362 678.05Z" fill="white"/>
<path d="M825.664 707.411C825.664 706.419 826 705.587 826.672 704.915C827.344 704.243 828.176 703.907 829.168 703.907C830.16 703.907 830.992 704.243 831.664 704.915C832.336 705.587 832.672 706.419 832.672 707.411C832.672 708.371 832.336 709.187 831.664 709.859C830.992 710.531 830.16 710.867 829.168 710.867C828.176 710.867 827.344 710.531 826.672 709.859C826 709.187 825.664 708.371 825.664 707.411Z" fill="white"/>
<path d="M825.664 761.94C825.664 760.948 826 760.116 826.672 759.444C827.344 758.772 828.176 758.436 829.168 758.436C830.16 758.436 830.992 758.772 831.664 759.444C832.336 760.116 832.672 760.948 832.672 761.94C832.672 762.9 832.336 763.716 831.664 764.388C830.992 765.06 830.16 765.396 829.168 765.396C828.176 765.396 827.344 765.06 826.672 764.388C826 763.716 825.664 762.9 825.664 761.94Z" fill="white"/>
<path d="M790.942 763.338C790.942 762.346 791.278 761.514 791.95 760.842C792.622 760.17 793.454 759.834 794.446 759.834C795.438 759.834 796.27 760.17 796.942 760.842C797.614 761.514 797.95 762.346 797.95 763.338C797.95 764.298 797.614 765.114 796.942 765.786C796.27 766.458 795.438 766.794 794.446 766.794C793.454 766.794 792.622 766.458 791.95 765.786C791.278 765.114 790.942 764.298 790.942 763.338Z" fill="white"/>
<path d="M790.942 735.375C790.942 734.383 791.278 733.551 791.95 732.879C792.622 732.207 793.454 731.871 794.446 731.871C795.438 731.871 796.27 732.207 796.942 732.879C797.614 733.551 797.95 734.383 797.95 735.375C797.95 736.335 797.614 737.151 796.942 737.823C796.27 738.495 795.438 738.831 794.446 738.831C793.454 738.831 792.622 738.495 791.95 737.823C791.278 737.151 790.942 736.335 790.942 735.375Z" fill="white"/>
<path d="M790.942 707.411C790.942 706.419 791.278 705.587 791.95 704.915C792.622 704.243 793.454 703.907 794.446 703.907C795.438 703.907 796.27 704.243 796.942 704.915C797.614 705.587 797.95 706.419 797.95 707.411C797.95 708.371 797.614 709.187 796.942 709.859C796.27 710.531 795.438 710.867 794.446 710.867C793.454 710.867 792.622 710.531 791.95 709.859C791.278 709.187 790.942 708.371 790.942 707.411Z" fill="white"/>
<path d="M790.943 678.05C790.943 677.058 791.279 676.226 791.951 675.554C792.623 674.882 793.455 674.546 794.447 674.546C795.439 674.546 796.271 674.882 796.943 675.554C797.615 676.226 797.951 677.058 797.951 678.05C797.951 679.01 797.615 679.826 796.943 680.498C796.271 681.17 795.439 681.506 794.447 681.506C793.455 681.506 792.623 681.17 791.951 680.498C791.279 679.826 790.943 679.01 790.943 678.05Z" fill="white"/>
<path d="M720.408 678.05C720.408 677.058 720.744 676.226 721.416 675.554C722.088 674.882 722.92 674.546 723.912 674.546C724.904 674.546 725.736 674.882 726.408 675.554C727.08 676.226 727.416 677.058 727.416 678.05C727.416 679.01 727.08 679.826 726.408 680.498C725.736 681.17 724.904 681.506 723.912 681.506C722.92 681.506 722.088 681.17 721.416 680.498C720.744 679.826 720.408 679.01 720.408 678.05Z" fill="white"/>
<path d="M753.594 761.94C753.594 760.948 753.93 760.116 754.602 759.444C755.274 758.772 756.106 758.436 757.098 758.436C758.09 758.436 758.922 758.772 759.594 759.444C760.266 760.116 760.602 760.948 760.602 761.94C760.602 762.9 760.266 763.716 759.594 764.388C758.922 765.06 758.09 765.396 757.098 765.396C756.106 765.396 755.274 765.06 754.602 764.388C753.93 763.716 753.594 762.9 753.594 761.94Z" fill="white"/>
<path d="M719.64 763.338C719.64 762.346 719.976 761.514 720.648 760.842C721.32 760.17 722.152 759.834 723.144 759.834C724.136 759.834 724.968 760.17 725.64 760.842C726.312 761.514 726.648 762.346 726.648 763.338C726.648 764.298 726.312 765.114 725.64 765.786C724.968 766.458 724.136 766.794 723.144 766.794C722.152 766.794 721.32 766.458 720.648 765.786C719.976 765.114 719.64 764.298 719.64 763.338Z" fill="white"/>
<path d="M755.291 708.809C755.291 707.817 755.627 706.985 756.299 706.313C756.971 705.641 757.803 705.305 758.795 705.305C759.787 705.305 760.619 705.641 761.291 706.313C761.963 706.985 762.299 707.817 762.299 708.809C762.299 709.769 761.963 710.585 761.291 711.257C760.619 711.929 759.787 712.265 758.795 712.265C757.803 712.265 756.971 711.929 756.299 711.257C755.627 710.585 755.291 709.769 755.291 708.809Z" fill="white"/>
<path d="M721.338 707.411C721.338 706.419 721.674 705.587 722.346 704.915C723.018 704.243 723.85 703.907 724.842 703.907C725.834 703.907 726.666 704.243 727.338 704.915C728.01 705.587 728.346 706.419 728.346 707.411C728.346 708.371 728.01 709.187 727.338 709.859C726.666 710.531 725.834 710.867 724.842 710.867C723.85 710.867 723.018 710.531 722.346 709.859C721.674 709.187 721.338 708.371 721.338 707.411Z" fill="white"/>
<path d="M755.291 735.375C755.291 734.383 755.627 733.551 756.299 732.879C756.971 732.207 757.803 731.871 758.795 731.871C759.787 731.871 760.619 732.207 761.291 732.879C761.963 733.551 762.299 734.383 762.299 735.375C762.299 736.335 761.963 737.151 761.291 737.823C760.619 738.495 759.787 738.831 758.795 738.831C757.803 738.831 756.971 738.495 756.299 737.823C755.627 737.151 755.291 736.335 755.291 735.375Z" fill="white"/>
<path d="M719.64 735.375C719.64 734.383 719.976 733.551 720.648 732.879C721.32 732.207 722.152 731.871 723.144 731.871C724.136 731.871 724.968 732.207 725.64 732.879C726.312 733.551 726.648 734.383 726.648 735.375C726.648 736.335 726.312 737.151 725.64 737.823C724.968 738.495 724.136 738.831 723.144 738.831C722.152 738.831 721.32 738.495 720.648 737.823C719.976 737.151 719.64 736.335 719.64 735.375Z" fill="white"/>
<path d="M721.338 792.7C721.338 791.708 721.674 790.876 722.346 790.204C723.018 789.532 723.85 789.196 724.842 789.196C725.834 789.196 726.666 789.532 727.338 790.204C728.01 790.876 728.346 791.708 728.346 792.7C728.346 793.66 728.01 794.476 727.338 795.148C726.666 795.82 725.834 796.156 724.842 796.156C723.85 796.156 723.018 795.82 722.346 795.148C721.674 794.476 721.338 793.66 721.338 792.7Z" fill="white"/>
<path d="M825.664 735.375C825.664 734.383 826 733.551 826.672 732.879C827.344 732.207 828.176 731.871 829.168 731.871C830.16 731.871 830.992 732.207 831.664 732.879C832.336 733.551 832.672 734.383 832.672 735.375C832.672 736.335 832.336 737.151 831.664 737.823C830.992 738.495 830.16 738.831 829.168 738.831C828.176 738.831 827.344 738.495 826.672 737.823C826 737.151 825.664 736.335 825.664 735.375Z" fill="white"/>
<path d="M719.64 822.061C719.64 821.069 719.976 820.237 720.648 819.565C721.32 818.893 722.152 818.557 723.144 818.557C724.136 818.557 724.968 818.893 725.64 819.565C726.312 820.237 726.648 821.069 726.648 822.061C726.648 823.021 726.312 823.837 725.64 824.509C724.968 825.181 724.136 825.517 723.144 825.517C722.152 825.517 721.32 825.181 720.648 824.509C719.976 823.837 719.64 823.021 719.64 822.061Z" fill="white"/>
<path d="M719.64 850.025C719.64 849.033 719.976 848.201 720.648 847.529C721.32 846.857 722.152 846.521 723.144 846.521C724.136 846.521 724.968 846.857 725.64 847.529C726.312 848.201 726.648 849.033 726.648 850.025C726.648 850.985 726.312 851.801 725.64 852.473C724.968 853.145 724.136 853.481 723.144 853.481C722.152 853.481 721.32 853.145 720.648 852.473C719.976 851.801 719.64 850.985 719.64 850.025Z" fill="white"/>
<path d="M719.64 877.988C719.64 876.996 719.976 876.164 720.648 875.492C721.32 874.82 722.152 874.484 723.144 874.484C724.136 874.484 724.968 874.82 725.64 875.492C726.312 876.164 726.648 876.996 726.648 877.988C726.648 878.948 726.312 879.764 725.64 880.436C724.968 881.108 724.136 881.444 723.144 881.444C722.152 881.444 721.32 881.108 720.648 880.436C719.976 879.764 719.64 878.948 719.64 877.988Z" fill="white"/>
<path d="M754.402 792.954C754.402 791.962 754.738 791.13 755.41 790.458C756.082 789.786 756.914 789.45 757.906 789.45C758.898 789.45 759.73 789.786 760.402 790.458C761.074 791.13 761.41 791.962 761.41 792.954C761.41 793.914 761.074 794.73 760.402 795.402C759.73 796.074 758.898 796.41 757.906 796.41C756.914 796.41 756.082 796.074 755.41 795.402C754.738 794.73 754.402 793.914 754.402 792.954Z" fill="white"/>
<path d="M754.402 822.061C754.402 821.069 754.738 820.237 755.41 819.565C756.082 818.893 756.914 818.557 757.906 818.557C758.898 818.557 759.73 818.893 760.402 819.565C761.074 820.237 761.41 821.069 761.41 822.061C761.41 823.021 761.074 823.837 760.402 824.509C759.73 825.181 758.898 825.517 757.906 825.517C756.914 825.517 756.082 825.181 755.41 824.509C754.738 823.837 754.402 823.021 754.402 822.061Z" fill="white"/>
<path d="M754.402 822.061C754.402 821.069 754.738 820.237 755.41 819.565C756.082 818.893 756.914 818.557 757.906 818.557C758.898 818.557 759.73 818.893 760.402 819.565C761.074 820.237 761.41 821.069 761.41 822.061C761.41 823.021 761.074 823.837 760.402 824.509C759.73 825.181 758.898 825.517 757.906 825.517C756.914 825.517 756.082 825.181 755.41 824.509C754.738 823.837 754.402 823.021 754.402 822.061Z" fill="white"/>
<path d="M754.402 850.025C754.402 849.033 754.738 848.201 755.41 847.529C756.082 846.857 756.914 846.521 757.906 846.521C758.898 846.521 759.73 846.857 760.402 847.529C761.074 848.201 761.41 849.033 761.41 850.025C761.41 850.985 761.074 851.801 760.402 852.473C759.73 853.145 758.898 853.481 757.906 853.481C756.914 853.481 756.082 853.145 755.41 852.473C754.738 851.801 754.402 850.985 754.402 850.025Z" fill="white"/>
<path d="M754.402 877.988C754.402 876.996 754.738 876.164 755.41 875.492C756.082 874.82 756.914 874.484 757.906 874.484C758.898 874.484 759.73 874.82 760.402 875.492C761.074 876.164 761.41 876.996 761.41 877.988C761.41 878.948 761.074 879.764 760.402 880.436C759.73 881.108 758.898 881.444 757.906 881.444C756.914 881.444 756.082 881.108 755.41 880.436C754.738 879.764 754.402 878.948 754.402 877.988Z" fill="white"/>
<path d="M790.902 792.954C790.902 791.962 791.238 791.13 791.91 790.458C792.582 789.786 793.414 789.45 794.406 789.45C795.398 789.45 796.23 789.786 796.902 790.458C797.574 791.13 797.91 791.962 797.91 792.954C797.91 793.914 797.574 794.73 796.902 795.402C796.23 796.074 795.398 796.41 794.406 796.41C793.414 796.41 792.582 796.074 791.91 795.402C791.238 794.73 790.902 793.914 790.902 792.954Z" fill="white"/>
<path d="M790.902 822.061C790.902 821.069 791.238 820.237 791.91 819.565C792.582 818.893 793.414 818.557 794.406 818.557C795.398 818.557 796.23 818.893 796.902 819.565C797.574 820.237 797.91 821.069 797.91 822.061C797.91 823.021 797.574 823.837 796.902 824.509C796.23 825.181 795.398 825.517 794.406 825.517C793.414 825.517 792.582 825.181 791.91 824.509C791.238 823.837 790.902 823.021 790.902 822.061Z" fill="white"/>
<path d="M790.902 822.061C790.902 821.069 791.238 820.237 791.91 819.565C792.582 818.893 793.414 818.557 794.406 818.557C795.398 818.557 796.23 818.893 796.902 819.565C797.574 820.237 797.91 821.069 797.91 822.061C797.91 823.021 797.574 823.837 796.902 824.509C796.23 825.181 795.398 825.517 794.406 825.517C793.414 825.517 792.582 825.181 791.91 824.509C791.238 823.837 790.902 823.021 790.902 822.061Z" fill="white"/>
<path d="M790.902 850.025C790.902 849.033 791.238 848.201 791.91 847.529C792.582 846.857 793.414 846.521 794.406 846.521C795.398 846.521 796.23 846.857 796.902 847.529C797.574 848.201 797.91 849.033 797.91 850.025C797.91 850.985 797.574 851.801 796.902 852.473C796.23 853.145 795.398 853.481 794.406 853.481C793.414 853.481 792.582 853.145 791.91 852.473C791.238 851.801 790.902 850.985 790.902 850.025Z" fill="white"/>
<path d="M790.902 877.988C790.902 876.996 791.238 876.164 791.91 875.492C792.582 874.82 793.414 874.484 794.406 874.484C795.398 874.484 796.23 874.82 796.902 875.492C797.574 876.164 797.91 876.996 797.91 877.988C797.91 878.948 797.574 879.764 796.902 880.436C796.23 881.108 795.398 881.444 794.406 881.444C793.414 881.444 792.582 881.108 791.91 880.436C791.238 879.764 790.902 878.948 790.902 877.988Z" fill="white"/>
<path d="M824.896 792.7C824.896 791.708 825.232 790.876 825.904 790.204C826.576 789.532 827.408 789.196 828.4 789.196C829.392 789.196 830.224 789.532 830.896 790.204C831.568 790.876 831.904 791.708 831.904 792.7C831.904 793.66 831.568 794.476 830.896 795.148C830.224 795.82 829.392 796.156 828.4 796.156C827.408 796.156 826.576 795.82 825.904 795.148C825.232 794.476 824.896 793.66 824.896 792.7Z" fill="white"/>
<path d="M825.664 822.061C825.664 821.069 826 820.237 826.672 819.565C827.344 818.893 828.176 818.557 829.168 818.557C830.16 818.557 830.992 818.893 831.664 819.565C832.336 820.237 832.672 821.069 832.672 822.061C832.672 823.021 832.336 823.837 831.664 824.509C830.992 825.181 830.16 825.517 829.168 825.517C828.176 825.517 827.344 825.181 826.672 824.509C826 823.837 825.664 823.021 825.664 822.061Z" fill="white"/>
<path d="M825.664 822.061C825.664 821.069 826 820.237 826.672 819.565C827.344 818.893 828.176 818.557 829.168 818.557C830.16 818.557 830.992 818.893 831.664 819.565C832.336 820.237 832.672 821.069 832.672 822.061C832.672 823.021 832.336 823.837 831.664 824.509C830.992 825.181 830.16 825.517 829.168 825.517C828.176 825.517 827.344 825.181 826.672 824.509C826 823.837 825.664 823.021 825.664 822.061Z" fill="white"/>
<path d="M825.664 850.025C825.664 849.033 826 848.201 826.672 847.529C827.344 846.857 828.176 846.521 829.168 846.521C830.16 846.521 830.992 846.857 831.664 847.529C832.336 848.201 832.672 849.033 832.672 850.025C832.672 850.985 832.336 851.801 831.664 852.473C830.992 853.145 830.16 853.481 829.168 853.481C828.176 853.481 827.344 853.145 826.672 852.473C826 851.801 825.664 850.985 825.664 850.025Z" fill="white"/>
<path d="M825.664 877.988C825.664 876.996 826 876.164 826.672 875.492C827.344 874.82 828.176 874.484 829.168 874.484C830.16 874.484 830.992 874.82 831.664 875.492C832.336 876.164 832.672 876.996 832.672 877.988C832.672 878.948 832.336 879.764 831.664 880.436C830.992 881.108 830.16 881.444 829.168 881.444C828.176 881.444 827.344 881.108 826.672 880.436C826 879.764 825.664 878.948 825.664 877.988Z" fill="white"/>
<path d="M0 726C0 686.236 32.2355 654 72 654H309C348.764 654 381 686.236 381 726V1043C381 1082.76 348.765 1115 309 1115H72C32.2355 1115 0 1082.76 0 1043V726Z" fill="url(#paint1_linear_108_95)"/>
<path d="M0 1130.4C48 1122.94 96 1122.94 144 1130.4C192 1137.87 240 1137.87 288 1130.4C336 1122.94 384 1122.94 432 1130.4C480 1137.87 528 1137.87 576 1130.4C624 1122.94 672 1122.94 720 1130.4C768 1137.87 816 1137.87 864 1130.4C912 1122.94 960 1122.94 1008 1130.4C1056 1137.87 1104 1137.87 1152 1130.4C1200 1122.94 1248 1122.94 1296 1130.4C1344 1137.87 1392 1137.87 1440 1130.4" stroke="#C8C8C9"/>
<path d="M0 1071.04C48 1063.58 96 1063.58 144 1071.04C192 1078.5 240 1078.5 288 1071.04C336 1063.58 384 1063.58 432 1071.04C480 1078.5 528 1078.5 576 1071.04C624 1063.58 672 1063.58 720 1071.04C768 1078.5 816 1078.5 864 1071.04C912 1063.58 960 1063.58 1008 1071.04C1056 1078.5 1104 1078.5 1152 1071.04C1200 1063.58 1248 1063.58 1296 1071.04C1344 1078.5 1392 1078.5 1440 1071.04" stroke="#C8C8C9"/>
<path d="M0 1016.55C48 1009.09 96 1009.09 144 1016.55C192 1024.01 240 1024.01 288 1016.55C336 1009.09 384 1009.09 432 1016.55C480 1024.01 528 1024.01 576 1016.55C624 1009.09 672 1009.09 720 1016.55C768 1024.01 816 1024.01 864 1016.55C912 1009.09 960 1009.09 1008 1016.55C1056 1024.01 1104 1024.01 1152 1016.55C1200 1009.09 1248 1009.09 1296 1016.55C1344 1024.01 1392 1024.01 1440 1016.55" stroke="#C8C8C9"/>
<path d="M0 1109C48 1101.53 96 1101.53 144 1109C192 1116.46 240 1116.46 288 1109C336 1101.53 384 1101.53 432 1109C480 1116.46 528 1116.46 576 1109C624 1101.53 672 1101.53 720 1109C768 1116.46 816 1116.46 864 1109C912 1101.53 960 1101.53 1008 1109C1056 1116.46 1104 1116.46 1152 1109C1200 1101.53 1248 1101.53 1296 1109C1344 1116.46 1392 1116.46 1440 1109" stroke="#C8C8C9"/>
<path d="M0 1049.63C48 1042.17 96 1042.17 144 1049.63C192 1057.1 240 1057.1 288 1049.63C336 1042.17 384 1042.17 432 1049.63C480 1057.1 528 1057.1 576 1049.63C624 1042.17 672 1042.17 720 1049.63C768 1057.1 816 1057.1 864 1049.63C912 1042.17 960 1042.17 1008 1049.63C1056 1057.1 1104 1057.1 1152 1049.63C1200 1042.17 1248 1042.17 1296 1049.63C1344 1057.1 1392 1057.1 1440 1049.63" stroke="#C8C8C9"/>
<path d="M0 995.139C48 987.678 96 987.678 144 995.139C192 1002.6 240 1002.6 288 995.139C336 987.678 384 987.678 432 995.139C480 1002.6 528 1002.6 576 995.139C624 987.678 672 987.678 720 995.139C768 1002.6 816 1002.6 864 995.139C912 987.678 960 987.678 1008 995.139C1056 1002.6 1104 1002.6 1152 995.139C1200 987.678 1248 987.678 1296 995.139C1344 1002.6 1392 1002.6 1440 995.139" stroke="#C8C8C9"/>
<path d="M0 1092.45C48 1084.99 96 1084.99 144 1092.45C192 1099.91 240 1099.91 288 1092.45C336 1084.99 384 1084.99 432 1092.45C480 1099.91 528 1099.91 576 1092.45C624 1084.99 672 1084.99 720 1092.45C768 1099.91 816 1099.91 864 1092.45C912 1084.99 960 1084.99 1008 1092.45C1056 1099.91 1104 1099.91 1152 1092.45C1200 1084.99 1248 1084.99 1296 1092.45C1344 1099.91 1392 1099.91 1440 1092.45" stroke="#C8C8C9"/>
<path d="M0 1033.09C48 1025.63 96 1025.63 144 1033.09C192 1040.55 240 1040.55 288 1033.09C336 1025.63 384 1025.63 432 1033.09C480 1040.55 528 1040.55 576 1033.09C624 1025.63 672 1025.63 720 1033.09C768 1040.55 816 1040.55 864 1033.09C912 1025.63 960 1025.63 1008 1033.09C1056 1040.55 1104 1040.55 1152 1033.09C1200 1025.63 1248 1025.63 1296 1033.09C1344 1040.55 1392 1040.55 1440 1033.09" stroke="#C8C8C9"/>
<path d="M0 978.596C48 971.135 96 971.135 144 978.596C192 986.056 240 986.056 288 978.596C336 971.135 384 971.135 432 978.596C480 986.056 528 986.056 576 978.596C624 971.135 672 971.135 720 978.596C768 986.056 816 986.056 864 978.596C912 971.135 960 971.135 1008 978.596C1056 986.056 1104 986.056 1152 978.596C1200 971.135 1248 971.135 1296 978.596C1344 986.056 1392 986.056 1440 978.596" stroke="#C8C8C9"/>
</g>
<defs>
<linearGradient id="paint0_linear_108_95" x1="720" y1="0" x2="720" y2="1115" gradientUnits="userSpaceOnUse">
<stop offset="0.630208" stop-color="#FAE3B6"/>
<stop offset="1" stop-color="#FAE3B6" stop-opacity="0"/>
</linearGradient>
<linearGradient id="paint1_linear_108_95" x1="191" y1="1115" x2="191" y2="654" gradientUnits="userSpaceOnUse">
<stop stop-color="#FFD18D"/>
<stop offset="1" stop-color="#FFFAF3" stop-opacity="0"/>
</linearGradient>
<clipPath id="clip0_108_95">
<rect width="1440" height="1136" fill="white"/>
</clipPath>
</defs>
</svg>
